<?xml version="1.0" standalone="no"?>
<!DOCTYPE svg PUBLIC "-//W3C//DTD SVG 1.1//EN" "http://www.w3.org/Graphics/SVG/1.1/DTD/svg11.dtd" >
<svg xmlns="http://www.w3.org/2000/svg" xmlns:xlink="http://www.w3.org/1999/xlink" version="1.1">
<metadata></metadata>
<defs>
<font id="mesmerizesemicondensed_light" horiz-adv-x="1163" >
<font-face units-per-em="2048" ascent="1622" descent="-426" />
<missing-glyph horiz-adv-x="475" />
<glyph unicode="&#x28;C&#x29;" horiz-adv-x="1335" d="M88 784q0 154 38 299.5t111.5 257t182 179t248.5 67.5q139 0 247.5 -67.5t182 -180t111.5 -258t38 -299.5t-38 -298t-111.5 -256.5t-182 -180t-247.5 -67.5q-141 2 -250 70.5t-182.5 181t-110.5 257t-37 295.5zM168 782q0 -145 32.5 -277t97 -231.5t157 -158t213.5 -58.5 q119 0 212 58.5t157.5 157t98 230.5t33.5 279t-33.5 279.5t-98 233t-157.5 158.5t-212 58t-211 -58t-156.5 -157.5t-98.5 -232.5t-34 -281zM350 786q0 100 24.5 181.5t68.5 138.5t104.5 87t132.5 30q78 0 142.5 -34t113.5 -87l-43 -64q-47 53 -103.5 80t-109.5 27 q-106 0 -177 -94.5t-71 -268.5t70.5 -271t187.5 -97q76 0 123 41t78 106l49 -45q-39 -92 -110.5 -136t-151.5 -44q-72 0 -131.5 31.5t-103.5 91t-68.5 142.5t-24.5 185z" />
<glyph unicode="&#x28;R&#x29;" horiz-adv-x="1335" d="M88 784q0 154 38 299.5t111.5 257t182 179t248.5 67.5q139 0 247.5 -67.5t182 -180t111.5 -258t38 -299.5t-38 -298t-111.5 -256.5t-182 -180t-247.5 -67.5q-141 2 -250 70.5t-182.5 181t-110.5 257t-37 295.5zM168 782q0 -145 32.5 -277t97 -231.5t157 -158t213.5 -58.5 q119 0 212 58.5t157.5 157t98 230.5t33.5 279t-33.5 280.5t-98 233t-157.5 157.5t-212 58t-211 -58t-156.5 -157.5t-98.5 -232.5t-34 -281zM455 348v862h233q51 0 89 -18t62.5 -51t36 -75t11.5 -91q0 -84 -35 -143.5t-111 -75.5l232 -408h-86l-228 402h-124v-402h-80z M535 825h151q61 0 91 41t30 113t-29.5 113t-91.5 41h-151v-308z" />
<glyph horiz-adv-x="0" />
<glyph horiz-adv-x="0" />
<glyph unicode="&#xd;" horiz-adv-x="475" />
<glyph horiz-adv-x="385" />
<glyph unicode=" "  horiz-adv-x="475" />
<glyph unicode="&#x09;" horiz-adv-x="475" />
<glyph unicode="&#xa0;" horiz-adv-x="475" />
<glyph unicode="!" horiz-adv-x="403" d="M129 0v250h145v-250h-145zM131 1567h143l-24 -1129h-94z" />
<glyph unicode="&#x22;" horiz-adv-x="509" d="M78 1055zM78 1567h133l-21 -512h-90zM297 1567h133l-21 -512h-90z" />
<glyph unicode="#" d="M104 481v99h222l43 452h-217v96h227l41 439h96l-41 -439h277l41 439h98l-41 -439h207v-96h-217l-43 -452h213v-99h-222l-45 -481h-98l45 481h-276l-45 -481h-97l45 481h-213zM422 580h276l43 452h-276z" />
<glyph unicode="$" d="M193 268l30 117q78 -51 169 -75.5t169 -30.5v460q-41 10 -79 21.5t-68 23.5q-43 16 -82 38t-67.5 54.5t-46 80t-17.5 116.5q0 86 26.5 147.5t74.5 101.5t114.5 59.5t144.5 23.5v246h80v-248q174 -14 322 -111l-33 -116q-72 41 -143.5 66.5t-145.5 35.5v-444 q47 -12 90 -24.5t78 -27.5q94 -37 142 -99t48 -179q0 -166 -93 -254t-265 -94v-240h-80v242q-86 4 -186.5 29.5t-181.5 80.5zM342 1063q0 -84 34.5 -117.5t106.5 -60.5q6 -4 25.5 -10.5t52.5 -16.5v424q-100 -4 -159.5 -53t-59.5 -166zM641 279q219 14 219 225 q0 78 -30.5 121t-102.5 67l-86 25v-438z" />
<glyph unicode="%" horiz-adv-x="1437" d="M88 0zM88 1124q0 84 17 164t50 141.5t82 98t111 36.5q63 0 111 -36.5t82 -98t51.5 -141.5t17.5 -166q0 -84 -17.5 -164t-51.5 -141.5t-82 -99t-111 -37.5t-112.5 39t-82.5 100t-49 141t-16 164zM184 1124q0 -70 11 -130t31.5 -106t51.5 -73t72 -27q39 0 69.5 27t51 72 t32 105t11.5 130t-11.5 130.5t-32 106.5t-51 72.5t-69.5 26.5t-70 -25.5t-52.5 -70.5t-32.5 -106.5t-11 -131.5zM232 -25l903 1667l76 -51l-904 -1665zM828 432q0 84 17 164t50 141.5t82 98t111 36.5q63 0 111 -36.5t82 -98t51.5 -141.5t17.5 -166q0 -84 -17.5 -164 t-51.5 -141.5t-82 -99t-111 -37.5t-112.5 39t-82.5 100t-49 141t-16 164zM924 432q0 -70 11 -130t31.5 -106t51.5 -73t72 -27q39 0 69.5 27t51 72t32 105t11.5 130t-11.5 130.5t-32 106.5t-51 72.5t-69.5 26.5t-70 -25.5t-52.5 -70.5t-32.5 -106.5t-11 -131.5z" />
<glyph unicode="&#x26;" horiz-adv-x="1097" d="M59 381q0 82 19.5 144.5t52.5 111.5t77 86t93 72q-68 86 -117 186t-49 229q0 82 21.5 151t61.5 119t97.5 78.5t126.5 28.5q61 0 116.5 -23.5t97.5 -69.5t65.5 -114.5t23.5 -160.5q0 -90 -22.5 -156t-61 -118t-91 -95t-111.5 -84l252 -299l82 315h125l-115 -426l301 -356 h-141l-197 233q-43 -109 -128 -181t-220 -72q-74 0 -139.5 24.5t-113.5 74.5t-77 126t-29 176zM186 401q0 -137 67 -216t171 -79q176 0 254 236l-305 367q-43 -31 -78 -61t-58.5 -64.5t-37 -78.5t-13.5 -104zM246 1194q0 -102 41 -182t100 -158q55 37 99 69.5t77 70.5 t50.5 87t17.5 119q0 127 -53.5 194.5t-135.5 67.5q-47 0 -82.5 -21.5t-61.5 -57t-39 -85t-13 -104.5z" />
<glyph unicode="'" horiz-adv-x="290" d="M78 1567h133l-21 -512h-90z" />
<glyph unicode="(" horiz-adv-x="647" d="M178 782q0 338 31 558.5t85 353.5t126 196.5t153 87.5v-106q-72 -29 -126 -101.5t-93 -201.5t-58.5 -319.5t-19.5 -450.5q0 -281 23 -478.5t61.5 -328.5t93 -202t119.5 -95v-109q-82 25 -153.5 88.5t-125.5 197.5t-85 353t-31 557z" />
<glyph unicode=")" horiz-adv-x="647" d="M74 -305q63 25 118.5 95.5t94.5 201.5t61.5 328.5t22.5 478.5q0 260 -19.5 450.5t-58.5 319.5t-94.5 201.5t-124.5 101.5v106q82 -25 153.5 -88t126 -196t85 -353.5t30.5 -558.5t-30.5 -557t-85 -353t-126 -197.5t-153.5 -88.5v109z" />
<glyph unicode="*" horiz-adv-x="854" d="M80 1118l278 80l-239 207l51 92l227 -244l-16 385h92l-16 -385l225 242l51 -90l-237 -207l278 -80l-24 -104l-273 119l131 -342l-82 -46l-100 355l-100 -355l-80 43l131 345l-275 -119z" />
<glyph unicode="+" d="M215 752v104h317v428h97v-428h317v-104h-317v-430h-97v430h-317z" />
<glyph unicode="," horiz-adv-x="403" d="M129 0v250h145v-41l-73 -508h-60l23 299h-35z" />
<glyph unicode="-" horiz-adv-x="518" d="M37 500v110h442v-110h-442z" />
<glyph unicode="." horiz-adv-x="403" d="M129 0v250h145v-250h-145z" />
<glyph unicode="/" horiz-adv-x="618" d="M-8 -229l536 1943h99l-535 -1943h-100z" />
<glyph unicode="0" d="M94 784q0 154 32 299.5t94.5 257t152.5 179t207 67.5t208 -67.5t153.5 -180t94 -258t31.5 -299.5t-31.5 -298t-94 -256.5t-153.5 -180t-208 -67.5q-119 0 -209 69.5t-151.5 182t-93.5 257t-32 295.5zM242 784q0 -133 22.5 -251.5t65.5 -206.5t105.5 -139.5t144.5 -51.5 t145 51.5t107.5 138.5t67 204.5t22.5 252.5t-22.5 254t-67 206t-107.5 138.5t-145 51.5q-80 0 -143.5 -51.5t-106.5 -138.5t-65.5 -204.5t-22.5 -253.5z" />
<glyph unicode="1" horiz-adv-x="673" d="M27 1022l495 565h23v-1587h-146v1253l-290 -331z" />
<glyph unicode="2" horiz-adv-x="970" d="M74 0v27q176 186 298 333.5t198.5 272.5t110.5 233.5t34 216.5q0 76 -16.5 139.5t-50.5 109.5t-87 73t-127 27q-78 0 -143.5 -32t-136.5 -104l-56 127q72 70 157 117t206 47q197 0 299 -124t102 -341q0 -117 -31.5 -231.5t-97 -232t-165 -241.5t-234.5 -261h536v-156 h-796z" />
<glyph unicode="3" horiz-adv-x="997" d="M88 238l72 104q66 -98 139.5 -152.5t177.5 -54.5q76 0 133.5 27.5t95 76t57 110t19.5 128.5q0 127 -66.5 206t-191.5 79h-104v121h110q59 0 101.5 23.5t69 62.5t39 87t12.5 97q0 127 -72 203t-195 76q-160 0 -282 -129l-64 124q74 72 160 116t197 44q86 0 158.5 -29.5 t123.5 -83t80 -129t29 -169.5q0 -106 -39 -198.5t-121 -146.5q88 -45 142.5 -134t54.5 -236q0 -115 -34 -204t-92.5 -150.5t-137 -94t-168.5 -32.5q-74 0 -133.5 20t-108.5 55t-89 82t-73 101z" />
<glyph unicode="4" horiz-adv-x="1021" d="M33 442v27l741 1118h21v-1020h188v-125h-188v-442h-127v442h-635zM219 567h449v680z" />
<glyph unicode="5" horiz-adv-x="1038" d="M92 238l70 104q61 -104 148 -155.5t184 -51.5q78 0 137 32t100 88t61.5 134t20.5 170q0 109 -26.5 188.5t-71.5 133t-104.5 80t-123.5 26.5q-94 0 -171.5 -53t-145.5 -158l-23 12l64 779h682v-156h-563l-35 -391q102 78 231 78q78 0 156 -31t139.5 -96.5t99 -169 t37.5 -248.5q0 -121 -28.5 -225.5t-85 -182t-139 -121.5t-191.5 -44q-141 0 -249.5 72.5t-172.5 185.5z" />
<glyph unicode="6" horiz-adv-x="1083" d="M88 713q0 160 26.5 315.5t87 280.5t156 201.5t234.5 76.5q94 0 182 -34.5t141 -88.5l-47 -131q-59 51 -132 75t-136 24q-86 0 -148.5 -40t-106.5 -109t-69.5 -162t-37.5 -199q70 76 152.5 127t191.5 51q80 0 154.5 -32t132 -97.5t92 -163.5t34.5 -232 q0 -125 -31.5 -233.5t-91 -189t-143.5 -126.5t-188 -46q-98 0 -182.5 44t-143.5 135t-93 228t-34 326zM229 735q0 -160 23.5 -274.5t64.5 -186t99.5 -105.5t126.5 -34q72 0 129 34t98 92t62.5 139t21.5 178q0 104 -24.5 180t-65.5 126t-93.5 73.5t-107.5 23.5 q-90 0 -177 -53.5t-157 -128.5v-64z" />
<glyph unicode="7" horiz-adv-x="882" d="M43 1411v156h817v-29l-545 -1538h-151l508 1411h-629z" />
<glyph unicode="8" horiz-adv-x="1024" d="M78 424q0 88 24.5 159.5t65.5 127t95 97.5t114 73q-47 25 -89 54.5t-75 69t-51.5 94t-18.5 128.5q0 92 30 159.5t81 112.5t116.5 66.5t137.5 21.5q70 0 135.5 -20.5t117.5 -64.5t84 -111.5t32 -161.5q0 -76 -20.5 -132.5t-55.5 -97.5t-79 -70.5t-93 -51.5 q57 -31 114.5 -71t102.5 -94.5t72.5 -124t27.5 -159.5q0 -98 -33.5 -181t-93 -142.5t-140.5 -92t-175 -32.5q-90 0 -168 31.5t-135.5 89t-90 139.5t-32.5 184zM217 455q0 -74 21.5 -133.5t59.5 -100.5t91 -63.5t115 -22.5q61 0 115.5 21.5t96.5 61.5t66.5 99.5t24.5 135.5 q0 78 -26.5 135t-69.5 100t-97.5 75t-109.5 58q-55 -25 -106.5 -55.5t-91.5 -73.5t-64.5 -100t-24.5 -137zM266 1208q0 -63 19.5 -106t52.5 -74t77 -52.5t91 -41.5q41 14 85 36.5t80 55.5t59.5 80t23.5 113q0 59 -20.5 103t-54.5 73.5t-79 44t-94 14.5q-106 0 -173 -64.5 t-67 -181.5z" />
<glyph unicode="9" horiz-adv-x="1064" d="M55 1001q0 135 36 243t99.5 184.5t151.5 117.5t193 41q109 0 191.5 -43t139 -122t85 -187.5t28.5 -239.5q0 -135 -29.5 -272t-82 -266t-126 -246t-159.5 -211h-168q117 123 206 268.5t142 302.5q-61 -45 -138 -76.5t-165 -31.5q-90 0 -164 38t-127 108.5t-83 170 t-30 221.5zM201 1004q0 -184 80 -292t219 -108q86 0 164.5 40t144.5 101q25 123 25 242q0 207 -75 326t-224 119q-72 0 -133.5 -29t-105.5 -84t-69.5 -135t-25.5 -180z" />
<glyph unicode=":" horiz-adv-x="403" d="M129 119v250h145v-250h-145zM129 119zM129 696v250h145v-250h-145z" />
<glyph unicode=";" horiz-adv-x="403" d="M129 0zM129 119v250h145v-41l-73 -508h-60l23 299h-35zM129 696v250h145v-250h-145z" />
<glyph unicode="&#x3c;" d="M215 791v26l731 451v-117l-575 -346l575 -346v-117z" />
<glyph unicode="=" d="M215 477v105h731v-105h-731zM215 1028v105h731v-105h-731z" />
<glyph unicode="&#x3e;" d="M215 342v117l576 346l-576 346v117l731 -451v-26z" />
<glyph unicode="?" horiz-adv-x="796" d="M31 1434q57 63 133 108t188 45q88 0 159 -30.5t119 -85t73.5 -130t25.5 -165.5q0 -92 -24.5 -163t-61.5 -130.5t-80 -109.5t-81 -101t-64.5 -107.5t-28.5 -126.5h-108q0 78 23.5 137.5t58 111.5t76.5 101.5t77 102.5t58.5 116.5t23.5 147.5q0 135 -66.5 216t-195.5 81 q-86 0 -143.5 -36t-110.5 -93zM262 0v250h146v-250h-146z" />
<glyph unicode="@" horiz-adv-x="1183" d="M88 506q0 168 35 316.5t103.5 259t172 174t238.5 63.5q100 0 174 -36t120 -98.5t68.5 -147.5t22.5 -183v-668h-92v82q-45 -41 -94.5 -64.5t-108.5 -23.5q-111 0 -174.5 86t-63.5 258q0 170 63.5 257t178.5 87q59 0 106.5 -22.5t94.5 -61.5v70q0 166 -72 266.5t-225 100.5 q-111 0 -194 -53.5t-138 -148.5t-84 -225t-29 -282q0 -162 32 -298t96.5 -235.5t162 -154.5t226.5 -55q115 0 217 50t174 167l61 -68q-72 -129 -190.5 -195.5t-268.5 -66.5t-264 65.5t-191 180t-117 269.5t-40 335zM582 524q0 -127 44 -189.5t115 -62.5q49 0 96.5 27 t92.5 68v329q-47 37 -91 58.5t-91 21.5q-78 0 -122 -64.5t-44 -187.5z" />
<glyph unicode="A" horiz-adv-x="1187" d="M23 0l559 1587h24l561 -1587h-157l-160 473h-516l-162 -473h-149zM371 586h440l-219 647z" />
<glyph unicode="B" horiz-adv-x="1112" d="M129 0v1567h518q96 0 165 -35t112 -91.5t62.5 -130t19.5 -153.5q0 -131 -44 -204.5t-106 -112.5q74 -45 132.5 -144.5t58.5 -249.5q0 -86 -23 -166.5t-69 -143t-114.5 -99.5t-158.5 -37h-553zM276 156h388q57 0 102 25.5t74.5 68.5t45 100.5t15.5 120.5t-15.5 119.5 t-43 98.5t-66.5 66.5t-88 24.5h-412v-624zM276 887h406q90 0 138 69.5t48 178.5q0 55 -13 105t-42 88t-73 60.5t-103 22.5h-361v-524z" />
<glyph unicode="C" horiz-adv-x="1228" d="M88 795q0 184 44 330.5t124 249t190.5 157.5t241.5 55q141 0 257 -60.5t202 -158.5l-88 -127q-78 86 -168 138.5t-203 52.5q-98 0 -181 -43t-143.5 -125t-94 -202t-33.5 -271q0 -154 34.5 -276t94 -206t141.5 -129t178 -45q111 0 212 63.5t155 202.5l108 -92 q-72 -170 -202 -249.5t-275 -79.5q-127 0 -235.5 58t-188.5 164.5t-125 257t-45 335.5z" />
<glyph unicode="D" horiz-adv-x="1212" d="M129 0v1567h389q166 0 280.5 -67.5t187.5 -176.5t105.5 -249t32.5 -283t-31.5 -284.5t-104.5 -254.5t-188.5 -182.5t-281.5 -69.5h-389zM276 156h254q119 0 204 50t138.5 136t79 199.5t25.5 242.5q0 127 -24.5 241t-79 200t-139.5 136t-204 50h-254v-1255z" />
<glyph unicode="E" horiz-adv-x="1046" d="M129 0v1567h811v-156h-664v-532h658v-150h-658v-573h668v-156h-815z" />
<glyph unicode="F" horiz-adv-x="987" d="M129 0v1567h778v-156h-631v-582h625v-147h-625v-682h-147z" />
<glyph unicode="G" horiz-adv-x="1310" d="M88 799q0 201 51 349t135 245.5t195 145.5t231 48q129 0 243 -51t200 -139l-74 -133q-84 86 -176 127t-191 41q-96 0 -181 -41t-148.5 -122t-100 -201t-36.5 -277q0 -147 32.5 -268.5t92 -207.5t141.5 -133t180 -47t175 45t130 124t81 184.5t28 226.5v24h-377v131h500 q12 -59 12 -147q0 -162 -40 -298t-112.5 -235.5t-174 -154.5t-226.5 -55q-127 0 -234.5 58t-186.5 165.5t-124 258t-45 337.5z" />
<glyph unicode="H" horiz-adv-x="1175" d="M129 0v1567h147v-690h623v690h148v-1567h-148v729h-623v-729h-147z" />
<glyph unicode="I" horiz-adv-x="407" d="M129 0v1567h147v-1567h-147z" />
<glyph unicode="J" horiz-adv-x="747" d="M25 66l16 143q72 -45 121 -59.5t86 -14.5q104 0 171.5 86t67.5 271v1075h146v-1108q0 -121 -25.5 -210t-72 -149.5t-110 -90t-138.5 -29.5q-59 0 -127 20t-135 66z" />
<glyph unicode="K" horiz-adv-x="1148" d="M129 0v1567h147v-768l654 768h164l-459 -537l475 -1030h-166l-418 901l-250 -293v-608h-147z" />
<glyph unicode="L" horiz-adv-x="913" d="M129 0v1567h147v-1411h594v-156h-741z" />
<glyph unicode="M" horiz-adv-x="1443" d="M129 0v1587h21l567 -1288l577 1288h21v-1587h-139v997l-453 -1017h-18l-435 1009v-989h-141z" />
<glyph unicode="N" horiz-adv-x="1271" d="M129 0v1587h21l849 -1194v1174h144v-1587h-21l-850 1196v-1176h-143z" />
<glyph unicode="O" horiz-adv-x="1335" d="M88 784q0 154 38 299.5t111.5 257t182.5 179t248 67.5t247.5 -67.5t182 -180t111.5 -258t38 -299.5t-38 -298t-111.5 -256.5t-182 -180t-247.5 -67.5q-141 0 -250 68.5t-182.5 181t-110.5 258t-37 296.5zM236 784q0 -133 28.5 -251.5t83.5 -206.5t136 -139.5t184 -51.5 q100 0 181 51.5t137 138.5t86 204.5t30 252.5t-30 254t-86 206t-137 138.5t-183 51.5t-182.5 -51.5t-135.5 -139.5t-83.5 -205.5t-28.5 -251.5z" />
<glyph unicode="P" horiz-adv-x="1042" d="M129 0v1567h492q88 0 155.5 -38t112.5 -102.5t67.5 -148.5t22.5 -178q0 -90 -21.5 -175t-65.5 -150.5t-110.5 -104.5t-158.5 -39h-344v-631h-150zM279 776h344q57 0 99 26.5t68.5 72t40 102.5t13.5 117q0 61 -13.5 117.5t-40 101.5t-68.5 71.5t-99 26.5h-344v-635z" />
<glyph unicode="Q" horiz-adv-x="1335" d="M88 801q0 152 38 293t111.5 250.5t182 176t248.5 66.5q139 0 247.5 -66.5t182 -176t111.5 -252t38 -291.5q0 -94 -15 -186.5t-45 -175.5t-74 -155.5t-101 -127.5l164 -324h-150l-123 242q-106 -60 -237 -60q-141 0 -249 68t-181.5 178.5t-110.5 251.5t-37 289zM236 801 q0 -127 28.5 -242t82.5 -202t135 -138t186 -51q94 0 168 43l-172 346h147l131 -260q78 88 118 219t40 283q0 127 -29 241.5t-84 201.5t-136 138.5t-183 51.5t-183.5 -51.5t-136.5 -137.5t-83.5 -200.5t-28.5 -241.5z" />
<glyph unicode="R" horiz-adv-x="1110" d="M129 0v1567h469q92 0 158.5 -37t109.5 -98.5t64.5 -140.5t21.5 -163q0 -66 -12 -129t-39 -117.5t-66.5 -96.5t-95.5 -66l344 -719h-165l-318 690h-2h-322v-690h-147zM276 809h304q59 0 101 24.5t69.5 66.5t41 95.5t13.5 112.5t-13.5 114.5t-41 97.5t-70.5 66.5t-100 24.5 h-304v-602z" />
<glyph unicode="S" horiz-adv-x="1071" d="M80 125l39 139q49 -37 106.5 -62.5t113.5 -42t110.5 -23.5t97.5 -7q152 0 225.5 80t73.5 213q0 94 -38 151.5t-124 92.5q-25 10 -70 26.5t-96 36t-101 37.5t-83 35q-53 25 -97 57.5t-77 76.5t-50.5 102.5t-17.5 133.5q0 201 120 308.5t318 107.5q225 0 418 -143l-39 -141 q-94 66 -191 100.5t-192 34.5q-131 0 -209.5 -71t-78.5 -212q0 -94 39.5 -148.5t132.5 -95.5q33 -14 82 -32.5t101 -37t100 -37t81 -32.5q111 -53 165 -140t54 -218q0 -98 -29.5 -178t-86 -136.5t-138.5 -88t-188 -31.5q-47 0 -105.5 7t-121 23.5t-126 44t-118.5 70.5z" />
<glyph unicode="T" horiz-adv-x="995" d="M45 1411v156h905v-156h-379v-1411h-149v1411h-377z" />
<glyph unicode="U" horiz-adv-x="1157" d="M117 606v961h145v-959q0 -111 16.5 -198.5t54.5 -148t98.5 -93.5t148.5 -33q166 0 242.5 117t76.5 356v959h143v-959q0 -322 -120.5 -475t-343.5 -153q-238 0 -349.5 160.5t-111.5 465.5z" />
<glyph unicode="V" horiz-adv-x="1187" d="M23 1567h155l416 -1235l420 1235h153l-561 -1587h-24z" />
<glyph unicode="W" horiz-adv-x="1697" d="M27 1567h151l279 -1166l389 1186h20l363 -1184l297 1164h143l-420 -1587h-22l-377 1228l-399 -1228h-21z" />
<glyph unicode="X" horiz-adv-x="1132" d="M27 0l450 819l-418 748h162l352 -629l367 629h147l-436 -768l449 -799h-166l-379 678l-377 -678h-151z" />
<glyph unicode="Y" d="M8 1567h166l410 -690l413 690h158l-498 -824v-743h-145v737z" />
<glyph unicode="Z" horiz-adv-x="1138" d="M66 0v27l774 1384h-760v156h995v-29l-772 -1382h760v-156h-997z" />
<glyph unicode="[" horiz-adv-x="647" d="M227 -414v2392h346v-104h-249v-2183h249v-105h-346z" />
<glyph unicode="\" horiz-adv-x="618" d="M-8 1714h100l535 -1943h-99z" />
<glyph unicode="]" horiz-adv-x="647" d="M74 -309h248v2183h-248v104h346v-2392h-346v105z" />
<glyph unicode="^" d="M229 625l340 962h21l344 -962h-105l-247 721l-250 -721h-103z" />
<glyph unicode="_" horiz-adv-x="733" d="M0 -145h733v-105h-733v105z" />
<glyph unicode="`" horiz-adv-x="589" d="M121 1294h125l223 -325h-104z" />
<glyph unicode="a" horiz-adv-x="835" d="M61 238q0 106 50.5 167.5t160.5 83.5l330 62q0 119 -44 171t-169 52q-55 0 -118.5 -14.5t-145.5 -61.5l-23 105q90 53 167 68.5t137 15.5q178 0 253.5 -79t75.5 -239v-569h-127v96q-72 -51 -144.5 -83.5t-158.5 -32.5q-119 0 -181.5 67.5t-62.5 190.5zM182 250 q0 -82 40 -126t118 -44q66 0 132.5 28.5t129.5 69.5v295l-291 -63q-80 -16 -104.5 -61.5t-24.5 -98.5z" />
<glyph unicode="b" horiz-adv-x="954" d="M129 0v1567h133v-799q23 18 55.5 38.5t71.5 38t82 30t88 12.5q76 0 133.5 -37t95 -99.5t57 -144.5t19.5 -174q0 -90 -18.5 -171t-55 -144.5t-92 -100t-131.5 -36.5q-43 0 -87 12t-84 29.5t-75.5 39t-60.5 39.5v-100h-131zM262 209q20 -16 51 -34.5t66 -36t74 -29 t73 -11.5q98 0 151.5 91.5t53.5 242.5q0 150 -53 243t-156 93q-37 0 -73.5 -11.5t-71.5 -28.5t-64.5 -36.5t-50.5 -34.5v-448z" />
<glyph unicode="c" horiz-adv-x="796" d="M88 436q0 102 28.5 186.5t79 142.5t117 90t140.5 32q72 0 141.5 -29t126.5 -86l-59 -88q-49 51 -99.5 69.5t-95.5 18.5q-111 0 -181.5 -91t-70.5 -247q0 -68 14.5 -129t45 -108t75.5 -75t107 -28q76 0 126 41t85 107l69 -62q-41 -86 -113.5 -143t-183.5 -57 q-88 0 -153.5 38.5t-109.5 102t-66.5 145.5t-22.5 170z" />
<glyph unicode="d" horiz-adv-x="952" d="M88 432q0 92 19.5 174t57.5 144.5t95 99.5t133 37q45 0 88 -12.5t82 -30t71 -38t54 -38.5v799h133v-1567h-129v100q-25 -18 -60.5 -39.5t-75.5 -39t-84 -29.5t-87 -12q-76 0 -132 37.5t-93 100t-54.5 144.5t-17.5 170zM221 430q0 -147 52.5 -239.5t152.5 -92.5 q37 0 75 11.5t73.5 29t65.5 36t50 34.5v448q-20 14 -50 34t-64.5 37t-71.5 28.5t-74 11.5q-102 0 -155.5 -93t-53.5 -245z" />
<glyph unicode="e" horiz-adv-x="884" d="M88 426q0 88 22.5 171t68.5 147.5t114.5 103.5t161.5 39q92 0 157.5 -39t107.5 -100.5t61.5 -140.5t19.5 -158v-27.5t-2 -26.5h-582q4 -63 20.5 -118.5t49 -97.5t83 -65.5t122.5 -23.5q109 0 221 66l26 -99q-41 -33 -112.5 -55t-153.5 -22q-104 0 -177 37.5t-119 101 t-67.5 143.5t-21.5 164zM217 475h455q0 57 -13.5 112.5t-40 97.5t-67.5 67.5t-98 25.5q-109 0 -167.5 -87t-68.5 -216z" />
<glyph unicode="f" horiz-adv-x="563" d="M51 756v108h111v434q0 82 18.5 138.5t50 89.5t73.5 47t91 14q47 0 86 -11t72 -32l-33 -106q-46 30 -97 30h-3q-57 0 -91 -38.5t-34 -139.5v-426h205v-108h-205v-756h-133v756h-111z" />
<glyph unicode="g" horiz-adv-x="911" d="M82 453q0 84 17.5 162.5t53 139t91 96.5t131.5 36q43 0 86 -11.5t82 -29t71.5 -38t57.5 -38.5v94h129v-884q0 -80 -20.5 -154t-63.5 -130t-112.5 -89t-168.5 -33q-78 0 -156.5 21.5t-136.5 60.5l25 111q68 -41 128 -57.5t118 -16.5q72 0 121 23.5t78.5 64.5t43 94 t13.5 113v143q-23 -16 -54.5 -36.5t-69.5 -37t-80 -28t-85 -11.5q-74 0 -130 35t-94 94.5t-56.5 138.5t-18.5 167zM213 446q0 -143 52 -231t153 -88q35 0 71.5 10t69.5 25.5t61.5 34t49.5 32.5v433q-20 14 -50 32.5t-64 34.5t-70.5 27.5t-71.5 11.5q-98 0 -149.5 -89 t-51.5 -233z" />
<glyph unicode="h" horiz-adv-x="935" d="M129 0v1567h135v-799q45 39 132 79t198 40q61 0 106 -17.5t76 -59.5t45.5 -109.5t14.5 -165.5v-535h-134v520q0 141 -37.5 194.5t-115.5 53.5q-41 0 -84 -11.5t-82 -28.5t-70.5 -36.5t-50.5 -36.5v-655h-133z" />
<glyph unicode="i" horiz-adv-x="391" d="M123 1124v256h145v-256h-145zM129 0v864h133v-864h-133z" />
<glyph unicode="j" horiz-adv-x="466" d="M-45 -385l22 106q23 -16 49.5 -22t49.5 -6q57 0 93 42t36 152v977h133v-991q0 -86 -18.5 -143.5t-51 -92t-74.5 -49t-92 -14.5q-45 0 -82.5 11.5t-64.5 29.5zM199 1124v256h145v-256h-145z" />
<glyph unicode="k" horiz-adv-x="892" d="M129 0v1567h135v-1125l398 422h149l-270 -284l307 -580h-148l-254 483l-182 -192v-291h-135z" />
<glyph unicode="l" horiz-adv-x="391" d="M129 0v1567h133v-1567h-133z" />
<glyph unicode="m" horiz-adv-x="1339" d="M121 0v864h129v-98q51 43 123.5 82t169.5 39q78 0 123 -33t63 -104q143 137 307 137q111 0 157 -64.5t46 -216.5v-606h-133v590q0 98 -27.5 138t-89.5 40q-66 0 -130 -34t-118 -85q2 -10 2 -19v-20v-610h-133v590q0 98 -27.5 138t-88.5 40q-35 0 -70 -10t-66.5 -26.5 t-58.5 -37t-45 -39.5v-655h-133z" />
<glyph unicode="n" horiz-adv-x="925" d="M121 0v864h129v-98q51 43 141 82t195 39q61 0 106 -17.5t75 -58.5t44 -108.5t14 -167.5v-535h-133v522q0 139 -38 192.5t-115 53.5q-41 0 -83 -11.5t-81 -27.5t-71 -35.5t-50 -38.5v-655h-133z" />
<glyph unicode="o" horiz-adv-x="884" d="M88 434q0 86 23.5 168t68.5 145.5t110.5 101.5t151.5 38t153 -39t112 -102.5t68.5 -145.5t23.5 -168t-23.5 -168t-68.5 -145.5t-112 -101t-153 -37.5t-151.5 37.5t-110.5 101t-68.5 145.5t-23.5 170zM219 432q0 -70 14.5 -131t43 -107.5t70.5 -73t95 -26.5t95.5 26.5 t71 73t44 107.5t15.5 131t-15.5 132.5t-44 108.5t-71 72.5t-95.5 26.5t-94 -26.5t-69.5 -72.5t-44 -108.5t-15.5 -132.5z" />
<glyph unicode="p" horiz-adv-x="946" d="M121 -414v1278h129v-100q27 20 63.5 41.5t76.5 40t83 30t86 11.5q76 0 131 -38t92 -101.5t54.5 -144.5t17.5 -169q0 -92 -19.5 -175t-57.5 -144.5t-95 -98t-133 -36.5q-43 0 -86 11t-82 29.5t-72 39t-55 38.5v-512h-133zM254 207q20 -16 49 -34.5t63.5 -35t71.5 -28 t74 -11.5q104 0 157.5 91.5t53.5 244.5q0 150 -52.5 242t-152.5 92q-37 0 -74.5 -12.5t-73.5 -28.5t-66 -36.5t-50 -35.5v-448z" />
<glyph unicode="q" horiz-adv-x="942" d="M88 434q0 88 17.5 170t54.5 144.5t93 100.5t132 38q43 0 87 -12.5t84 -31t76 -40t60 -39.5v100h129v-1278h-133v512q-23 -18 -55.5 -38.5t-70.5 -39t-82 -29.5t-87 -11q-76 0 -133 36.5t-95 99t-57.5 144.5t-19.5 174zM219 434q0 -154 54.5 -245t156.5 -91q37 0 74 11.5 t71.5 28t64.5 34.5t50 35v448l-50 35t-65.5 37t-73.5 28.5t-75 12.5q-100 0 -153.5 -91t-53.5 -243z" />
<glyph unicode="r" horiz-adv-x="770" d="M121 0v864h129v-174q47 86 113.5 141.5t156.5 55.5q63 0 119.5 -30t93.5 -89l-37 -98q-72 98 -178 98q-86 0 -147.5 -54.5t-116.5 -154.5v-559h-133z" />
<glyph unicode="s" horiz-adv-x="808" d="M78 63l22 105q35 -18 76 -33.5t84 -27t84 -17.5t78 -6q39 0 74.5 8t64.5 26.5t46.5 48.5t17.5 73q0 61 -34 85.5t-81 36.5q-18 4 -48 11.5t-65 14.5t-70.5 16.5t-66.5 19.5t-61.5 25.5t-57 40t-43 61.5t-16.5 88q0 123 90 185.5t231 62.5q84 0 162 -20.5t146 -59.5 l-29 -102q-66 35 -137.5 55t-138.5 20q-90 0 -145.5 -37.5t-55.5 -109.5q0 -61 39 -89t98 -42q4 0 27.5 -5t58.5 -13.5t75 -19.5t75 -24q82 -29 123.5 -69.5t41.5 -126.5q0 -70 -27.5 -120t-72.5 -82t-105.5 -47t-123.5 -15q-86 0 -176.5 23.5t-159.5 59.5z" />
<glyph unicode="t" horiz-adv-x="561" d="M51 756v108h111v404h133v-404h205v-108h-205v-465q0 -109 37 -151t92 -42q25 0 49.5 7.5t46.5 23.5l31 -102q-63 -47 -156 -47q-49 0 -91 15t-73.5 50t-50 90t-18.5 135v486h-111z" />
<glyph unicode="u" horiz-adv-x="954" d="M129 330v534h133v-518q0 -141 39 -194.5t117 -53.5q41 0 84 11.5t81 28t69.5 36t49.5 35.5v655h134v-864h-129v98q-25 -20 -61 -41.5t-80 -38t-93 -27.5t-98 -11q-125 0 -185.5 79.5t-60.5 270.5z" />
<glyph unicode="v" horiz-adv-x="821" d="M23 864h133l256 -628l260 628h127l-377 -884h-23z" />
<glyph unicode="w" horiz-adv-x="1142" d="M27 864h127l168 -602l245 625h23l227 -621l180 598h119l-278 -884h-21l-242 655l-260 -655h-20z" />
<glyph unicode="x" horiz-adv-x="829" d="M29 0l313 451l-285 413h144l225 -327l227 327h133l-292 -424l305 -440h-144l-247 356l-248 -356h-131z" />
<glyph unicode="y" horiz-adv-x="815" d="M23 864h133l247 -618l263 618h129l-539 -1278h-129l215 510z" />
<glyph unicode="z" horiz-adv-x="784" d="M66 0v27l464 721h-450v116h639v-26l-461 -719h455v-119h-647z" />
<glyph unicode="{" horiz-adv-x="647" d="M90 754v104h70q41 0 64.5 45t23.5 121v635q0 162 64.5 240.5t174.5 78.5h86v-104h-69q-78 0 -118 -60.5t-40 -177.5l-2 -630q0 -68 -20.5 -119t-65.5 -80q45 -29 65.5 -80t20.5 -119l2 -678q0 -117 40 -178t118 -61h69v-105h-86q-111 0 -175 80t-64 240v682 q0 76 -23.5 121t-64.5 45h-70z" />
<glyph unicode="|" horiz-adv-x="600" d="M252 -211v1989h98v-1989h-98z" />
<glyph unicode="}" horiz-adv-x="647" d="M74 -309h69q78 0 118 61.5t40 177.5v678q0 68 20.5 119t67.5 80q-47 29 -67.5 80t-20.5 119v630q0 117 -40 177.5t-118 60.5h-69v104h86q111 0 175 -78.5t64 -240.5v-635q0 -76 23.5 -121t62.5 -45h72v-104h-72q-39 0 -62.5 -45t-23.5 -121v-682q0 -160 -64.5 -240 t-174.5 -80h-86v105z" />
<glyph unicode="~" d="M213 772q47 63 99.5 99t115.5 36q39 0 77 -13t85 -36q35 -16 68.5 -33.5t78.5 -17.5q41 0 76 21.5t80 76.5l53 -69q-43 -59 -94 -96.5t-121 -37.5q-41 0 -78 13.5t-80 36.5q-41 23 -75.5 37t-73.5 14q-41 0 -76 -21.5t-82 -81.5z" />
<glyph unicode="&#xa1;" horiz-adv-x="401" d="M127 -414l25 1129h94l24 -1129h-143zM127 903v250h145v-250h-145z" />
<glyph unicode="&#xa2;" d="M147 788q0 135 34 245t92.5 190t139.5 126t177 54v248h80v-248q98 -8 182 -53t152 -113l-78 -102q-59 68 -124 101.5t-132 39.5v-991q84 10 145.5 64t108.5 147l90 -78q-53 -117 -143.5 -183.5t-200.5 -76.5v-242h-80v240q-98 8 -180 59t-140.5 134t-90.5 195.5 t-32 243.5zM276 784q0 -106 23 -194t63.5 -153.5t98 -104.5t129.5 -47v989q-137 -18 -225.5 -143.5t-88.5 -346.5z" />
<glyph unicode="&#xa3;" d="M129 238q0 115 57.5 183t151.5 68q53 0 96 -21.5t80 -53.5q-6 82 -29.5 154.5t-52.5 144.5h-266v96h225q-37 86 -64.5 175t-27.5 196q0 90 23.5 164.5t67.5 129t107.5 84t141.5 29.5q84 0 164 -35.5t135 -109.5l-55 -119q-43 57 -100.5 83t-112.5 26q-98 0 -165 -75 t-67 -212q0 -86 25.5 -169t60.5 -167h342v-96h-305q29 -78 51.5 -160t22.5 -174q0 -45 -6 -88q55 -68 106 -112t117 -44q49 0 89 24.5t71 65.5l49 -125q-45 -66 -100.5 -93t-108.5 -27q-82 0 -144.5 54t-115.5 126q-37 -86 -100.5 -133t-141.5 -47q-94 0 -157.5 68.5 t-63.5 189.5zM227 240q0 -76 35 -115t88 -39q66 0 106 54.5t54 140.5q-39 51 -76 78.5t-84 27.5q-53 0 -88 -38t-35 -109z" />
<glyph unicode="&#xa4;" d="M180 287l131 172q-35 59 -52 131t-17 147q0 76 17 147.5t52 131.5l-129 172l60 74l125 -170q41 43 95 67.5t120 24.5t119 -24.5t94 -65.5l125 166l61 -76l-129 -168q35 -59 52.5 -131t17.5 -146q0 -78 -18.5 -149.5t-53.5 -130.5l131 -170l-61 -74l-127 168 q-41 -41 -94.5 -64.5t-118.5 -23.5q-66 0 -117 23.5t-92 64.5l-129 -172zM330 737q0 -68 16 -130t48 -110t79.5 -78t108.5 -30t108 30t78 79t47 111.5t16 129.5q0 68 -16 130.5t-47 111.5t-78 79t-108 30t-107.5 -30t-79.5 -79t-49 -112.5t-16 -131.5z" />
<glyph unicode="&#xa5;" d="M98 1567h154l330 -596l333 596h148l-408 -723v-172h281v-97h-281v-233h281v-96h-281v-246h-147v246h-272v96h272v233h-272v97h272v168z" />
<glyph unicode="&#xa6;" horiz-adv-x="600" d="M252 -211v782h98v-782h-98zM252 995v783h98v-783h-98z" />
<glyph unicode="&#xa7;" horiz-adv-x="1286" d="M72 -279l39 140q49 -37 106 -62.5t113.5 -42t111 -23.5t97.5 -7q152 0 225.5 79.5t73.5 214.5q0 94 -38 148.5t-124 93.5q-51 23 -115.5 43.5t-130 45t-128 57t-111 82t-78 117t-29.5 163.5q0 137 60.5 232.5t166.5 142.5q0 219 120 330.5t319 111.5q225 0 417 -143 l-39 -141q-94 66 -191 100.5t-192 34.5q-131 0 -209.5 -71t-78.5 -212q0 -94 40 -148.5t132 -95.5q31 -14 80 -31.5t101 -36t101.5 -38t81.5 -33.5q117 -53 168 -143t51 -215q0 -139 -58 -240.5t-169 -153.5v-10q0 -98 -29.5 -178t-86 -136t-138.5 -88t-188 -32 q-47 0 -105.5 7t-121 23.5t-126 44t-118.5 70.5zM229 752q0 -94 40 -148.5t132 -95.5q31 -14 81 -31.5t102.5 -37t101.5 -38t80 -32.5q66 -31 115 -79t73 -112q51 35 81 95.5t30 150.5q0 98 -39 151.5t-123 90.5q-100 45 -187 72.5t-158 59t-125 74.5t-87 119 q-55 -35 -86 -94t-31 -145z" />
<glyph unicode="&#xa8;" horiz-adv-x="768" d="M156 1024v240h108v-240h-108zM506 1024v240h108v-240h-108z" />
<glyph unicode="&#xaa;" horiz-adv-x="534" d="M66 1098q0 72 30.5 111.5t102.5 56.5l163 37q0 78 -21.5 111.5t-86.5 33.5q-35 0 -68.5 -10.5t-79.5 -38.5l-16 69q49 37 92 47.5t78 10.5q100 0 143 -51.5t43 -159.5v-375h-81v53q-41 -31 -79 -49t-81 -18q-68 0 -103.5 45t-35.5 127zM150 1100q-1 -107 83 -107 q33 0 66 15.5t63 40.5v200l-135 -37q-78 -20 -77 -112z" />
<glyph unicode="&#xab;" horiz-adv-x="829" d="M78 0zM78 414v22l276 410h92l-262 -422l262 -424h-92zM381 414v22l276 410h92l-262 -422l262 -424h-92z" />
<glyph unicode="&#xac;" horiz-adv-x="991" d="M129 752v104h733v-856h-98v752h-635z" />
<glyph unicode="&#xad;" horiz-adv-x="514" d="M33 500v110h442v-110h-442zM33 500z" />
<glyph unicode="&#xaf;" horiz-adv-x="788" d="M121 1094v88h549v-88h-549z" />
<glyph unicode="&#xb0;" horiz-adv-x="561" d="M57 1386q0 55 15.5 107.5t44 93.5t69.5 65.5t95 24.5q53 0 95 -24.5t70.5 -65.5t43 -93t14.5 -108q0 -55 -14.5 -107t-43 -93t-70.5 -65.5t-95 -24.5t-95.5 25.5t-71 66.5t-43 93t-14.5 105zM135 1384q0 -41 9.5 -78.5t27.5 -68.5t45 -49.5t62 -18.5t62.5 18.5t46 49.5 t28.5 70t10 82q0 41 -9 79.5t-27.5 68.5t-45.5 48.5t-61 18.5q-35 0 -62.5 -18.5t-46 -49.5t-29 -70t-10.5 -82z" />
<glyph unicode="&#xb1;" d="M215 51zM215 52v104h731v-104h-731zM215 764v104h317v428h97v-428h317v-104h-317v-430h-97v430h-317z" />
<glyph unicode="&#xb2;" horiz-adv-x="657" d="M86 692v14q98 104 168 185.5t114 149t64.5 125.5t20.5 116q0 80 -39 128t-117 48q-41 0 -77 -16.5t-81 -57.5l-41 90q45 41 95.5 65.5t121.5 24.5q115 0 175.5 -68.5t60.5 -191.5q0 -129 -69.5 -247.5t-213.5 -258.5h289v-106h-471zM86 692z" />
<glyph unicode="&#xb3;" horiz-adv-x="657" d="M90 680zM90 821l49 72q70 -104 176 -105q84 0 125 50.5t41 119.5q0 63 -33.5 105.5t-103.5 42.5h-63v75h65q63 0 90 42t27 96q0 66 -37 102.5t-104 36.5q-43 0 -85 -16.5t-77 -51.5l-41 88q43 39 94 62.5t115 23.5q102 0 164.5 -61t62.5 -164q0 -59 -22.5 -109.5 t-67.5 -80.5q49 -27 81 -76t32 -129q0 -125 -74 -194.5t-180 -69.5q-86 0 -141.5 42t-92.5 99z" />
<glyph unicode="&#xb4;" horiz-adv-x="589" d="M121 969l221 325h127l-246 -325h-102z" />
<glyph unicode="&#xb6;" horiz-adv-x="1232" d="M72 1116q0 86 22.5 167t68.5 144.5t115.5 101.5t165.5 38h660v-1981h-107v1870h-338v-1870h-106v1082h-109q-98 0 -168.5 38.5t-115.5 101t-66.5 143.5t-21.5 165zM180 1116q0 -66 15.5 -127t48 -108t83 -76t117.5 -29h109v680h-109q-68 0 -116.5 -27.5t-81.5 -74.5 t-49.5 -108.5t-16.5 -129.5z" />
<glyph unicode="&#xb7;" horiz-adv-x="354" d="M104 698v250h145v-250h-145zM104 698z" />
<glyph unicode="&#xb8;" horiz-adv-x="491" d="M152 -414l81 351h109l-102 -351h-88z" />
<glyph unicode="&#xb9;" horiz-adv-x="659" d="M111 692zM111 1263l350 301h16v-872h-102v670l-213 -178z" />
<glyph unicode="&#xba;" horiz-adv-x="561" d="M80 1227q0 57 13 111.5t39 95.5t62.5 66.5t86.5 25.5q49 0 87 -25.5t62.5 -67.5t37.5 -95.5t13 -110.5q0 -59 -13 -113.5t-39 -95.5t-62.5 -66.5t-85.5 -25.5t-86 25.5t-63 66.5t-39 95.5t-13 113.5zM164 1227q0 -92 29.5 -157.5t87.5 -65.5q57 0 86.5 64.5t29.5 158.5 q0 90 -29.5 155.5t-86.5 65.5t-87 -64.5t-30 -156.5z" />
<glyph unicode="&#xbb;" horiz-adv-x="829" d="M78 0l264 424l-264 422h94l274 -410v-22l-274 -414h-94zM78 0zM381 0l264 424l-264 422h94l274 -410v-22l-274 -414h-94z" />
<glyph unicode="&#xbc;" horiz-adv-x="1585" d="M111 0zM111 1263l350 301h16v-872h-102v670l-213 -178zM303 -25l903 1667l76 -51l-904 -1665zM917 231v15l434 626h13v-555h102v-86h-102v-231h-84v231h-363zM1048 317h232v330z" />
<glyph unicode="&#xbd;" horiz-adv-x="1585" d="M111 0zM111 1263l350 301h16v-872h-102v670l-213 -178zM303 -25l903 1667l76 -51l-904 -1665zM1014 0v14q98 104 168 185.5t114 149t64.5 125.5t20.5 116q0 80 -39 128t-117 48q-41 0 -77 -16.5t-81 -57.5l-41 90q45 41 95.5 65.5t121.5 24.5q115 0 175.5 -68.5 t60.5 -191.5q0 -129 -69.5 -247.5t-213.5 -258.5h289v-106h-471z" />
<glyph unicode="&#xbe;" horiz-adv-x="1585" d="M90 0zM90 821l49 72q70 -104 176 -105q84 0 125 50.5t41 119.5q0 63 -33.5 105.5t-103.5 42.5h-63v75h65q63 0 90 42t27 96q0 66 -37 102.5t-104 36.5q-43 0 -85 -16.5t-77 -51.5l-41 88q43 39 94 62.5t115 23.5q102 0 164.5 -61t62.5 -164q0 -59 -22.5 -109.5 t-67.5 -80.5q49 -27 81 -76t32 -129q0 -125 -74 -194.5t-180 -69.5q-86 0 -141.5 42t-92.5 99zM303 -25l903 1667l76 -51l-904 -1665zM917 231v15l434 626h13v-555h102v-86h-102v-231h-84v231h-363zM1048 317h232v330z" />
<glyph unicode="&#xbf;" horiz-adv-x="796" d="M47 -14q0 92 24.5 162.5t61.5 130t80 109.5t81 101.5t64.5 107.5t28.5 126h109q0 -78 -23.5 -137.5t-58.5 -111.5t-77 -101t-77 -102.5t-58.5 -118t-23.5 -146.5q0 -135 66.5 -216t195.5 -81q86 0 143.5 36t110.5 93l51 -110q-57 -63 -132.5 -108.5t-188.5 -45.5 q-90 0 -159.5 30.5t-118 85t-74 130.5t-25.5 166zM369 911v250h145v-250h-145z" />
<glyph unicode="&#xc0;" horiz-adv-x="1187" d="M23 0l559 1587h24l561 -1587h-157l-160 473h-516l-162 -473h-149zM23 0zM338 2013h125l223 -325h-104zM371 586h440l-219 647z" />
<glyph unicode="&#xc1;" horiz-adv-x="1187" d="M23 0l559 1587h24l561 -1587h-157l-160 473h-516l-162 -473h-149zM23 0zM371 586h440l-219 647zM500 1688l221 325h127l-246 -325h-102z" />
<glyph unicode="&#xc2;" horiz-adv-x="1187" d="M23 0l559 1587h24l561 -1587h-157l-160 473h-516l-162 -473h-149zM23 0zM344 1688l241 325h19l241 -325h-108l-143 209l-144 -209h-106zM371 586h440l-219 647z" />
<glyph unicode="&#xc3;" horiz-adv-x="1187" d="M23 0l559 1587h24l561 -1587h-157l-160 473h-516l-162 -473h-149zM23 0zM303 1831q29 66 69.5 105.5t96.5 39.5q35 0 64.5 -17t70.5 -50q35 -29 61.5 -44.5t55.5 -15.5q35 0 60.5 26t49.5 75l53 -51q-31 -66 -71.5 -106t-95.5 -40q-35 0 -65 17.5t-71 50.5 q-33 27 -58.5 43t-55.5 16q-33 0 -56.5 -21.5t-52.5 -78.5zM371 586h440l-219 647z" />
<glyph unicode="&#xc4;" horiz-adv-x="1187" d="M23 0l559 1587h24l561 -1587h-157l-160 473h-516l-162 -473h-149zM23 0zM365 1743v240h108v-240h-108zM371 586h440l-219 647zM715 1743v240h108v-240h-108z" />
<glyph unicode="&#xc5;" horiz-adv-x="1187" d="M23 0l559 1587h24l561 -1587h-157l-160 473h-516l-162 -473h-149zM23 0zM371 586h440l-219 647zM412 1831q0 39 11 75t35 63.5t56.5 45t75.5 17.5t78 -17.5t57.5 -45t34.5 -63.5t12 -75t-12 -75t-34.5 -64.5t-56.5 -46t-77 -17.5t-76.5 17.5t-56.5 45t-35 64.5t-12 76z M475 1829q-2 -53 27 -98t88 -45t89 43t30 102t-31 101t-86 42t-86 -43t-31 -102z" />
<glyph unicode="&#xc6;" horiz-adv-x="1718" d="M25 0l555 1567h1034v-156h-586v-532h580v-150h-580v-573h592v-156h-737v473h-541l-166 -473h-151zM381 586h502v825h-213z" />
<glyph unicode="&#xc7;" horiz-adv-x="1228" d="M88 0zM88 795q0 184 44 330.5t124 249t190.5 157.5t241.5 55q141 0 257 -60.5t202 -158.5l-88 -127q-78 86 -168 138.5t-203 52.5q-98 0 -181 -43t-143.5 -125t-94 -202t-33.5 -271q0 -154 34.5 -276t94 -206t141.5 -129t178 -45q111 0 212 63.5t155 202.5l108 -92 q-72 -170 -202 -249.5t-275 -79.5q-127 0 -235.5 58t-188.5 164.5t-125 257t-45 335.5zM533 -414l81 351h109l-102 -351h-88z" />
<glyph unicode="&#xc8;" horiz-adv-x="1046" d="M129 0v1567h811v-156h-664v-532h658v-150h-658v-573h668v-156h-815zM129 0zM316 2013h125l223 -325h-104z" />
<glyph unicode="&#xc9;" horiz-adv-x="1046" d="M129 0v1567h811v-156h-664v-532h658v-150h-658v-573h668v-156h-815zM129 0zM414 1688l221 325h127l-246 -325h-102z" />
<glyph unicode="&#xca;" horiz-adv-x="1046" d="M129 0v1567h811v-156h-664v-532h658v-150h-658v-573h668v-156h-815zM129 0zM273 1688l241 325h19l241 -325h-108l-143 209l-144 -209h-106z" />
<glyph unicode="&#xcb;" horiz-adv-x="1046" d="M129 0v1567h811v-156h-664v-532h658v-150h-658v-573h668v-156h-815zM129 0zM310 1743v240h108v-240h-108zM660 1743v240h108v-240h-108z" />
<glyph unicode="&#xcc;" horiz-adv-x="462" d="M18 0zM19 2013h125l223 -325h-104zM184 0v1567h147v-1567h-147z" />
<glyph unicode="&#xcd;" horiz-adv-x="462" d="M100 0zM101 1688l221 325h127l-246 -325h-102zM129 0v1567h147v-1567h-147z" />
<glyph unicode="&#xce;" horiz-adv-x="509" d="M4 0zM4 1688l241 325h19l241 -325h-108l-143 209l-144 -209h-106zM178 0v1567h147v-1567h-147z" />
<glyph unicode="&#xcf;" horiz-adv-x="462" d="M2 0zM2 1743v240h108v-240h-108zM158 0v1567h147v-1567h-147zM352 1743v240h108v-240h-108z" />
<glyph unicode="&#xd0;" horiz-adv-x="1251" d="M37 750v110h131v707h389q166 0 280.5 -67.5t187.5 -176.5t105.5 -249t32.5 -283t-31.5 -284.5t-104.5 -254.5t-188.5 -182.5t-281.5 -69.5h-389v750h-131zM315 156h254q119 0 204 50t138.5 136t79 199.5t25.5 242.5q0 127 -24.5 241t-79 200t-139.5 136t-204 50h-254 v-551h410v-110h-410v-594z" />
<glyph unicode="&#xd1;" horiz-adv-x="1271" d="M129 0v1587h21l849 -1194v1174h144v-1587h-21l-850 1196v-1176h-143zM129 0zM346 1831q29 66 69.5 105.5t96.5 39.5q35 0 64.5 -17t70.5 -50q35 -29 61.5 -44.5t55.5 -15.5q35 0 60.5 26t49.5 75l53 -51q-31 -66 -71.5 -106t-95.5 -40q-35 0 -65 17.5t-71 50.5 q-33 27 -58.5 43t-55.5 16q-33 0 -56.5 -21.5t-52.5 -78.5z" />
<glyph unicode="&#xd2;" horiz-adv-x="1335" d="M88 0zM88 784q0 154 38 299.5t111.5 257t182.5 179t248 67.5t247.5 -67.5t182 -180t111.5 -258t38 -299.5t-38 -298t-111.5 -256.5t-182 -180t-247.5 -67.5q-141 0 -250 68.5t-182.5 181t-110.5 258t-37 296.5zM236 784q0 -133 28.5 -251.5t83.5 -206.5t136 -139.5 t184 -51.5q100 0 181 51.5t137 138.5t86 204.5t30 252.5t-30 254t-86 206t-137 138.5t-183 51.5t-182.5 -51.5t-135.5 -139.5t-83.5 -205.5t-28.5 -251.5zM447 2013h125l223 -325h-104z" />
<glyph unicode="&#xd3;" horiz-adv-x="1335" d="M88 0zM88 784q0 154 38 299.5t111.5 257t182.5 179t248 67.5t247.5 -67.5t182 -180t111.5 -258t38 -299.5t-38 -298t-111.5 -256.5t-182 -180t-247.5 -67.5q-141 0 -250 68.5t-182.5 181t-110.5 258t-37 296.5zM236 784q0 -133 28.5 -251.5t83.5 -206.5t136 -139.5 t184 -51.5q100 0 181 51.5t137 138.5t86 204.5t30 252.5t-30 254t-86 206t-137 138.5t-183 51.5t-182.5 -51.5t-135.5 -139.5t-83.5 -205.5t-28.5 -251.5zM543 1688l221 325h127l-246 -325h-102z" />
<glyph unicode="&#xd4;" horiz-adv-x="1335" d="M88 0zM88 784q0 154 38 299.5t111.5 257t182.5 179t248 67.5t247.5 -67.5t182 -180t111.5 -258t38 -299.5t-38 -298t-111.5 -256.5t-182 -180t-247.5 -67.5q-141 0 -250 68.5t-182.5 181t-110.5 258t-37 296.5zM236 784q0 -133 28.5 -251.5t83.5 -206.5t136 -139.5 t184 -51.5q100 0 181 51.5t137 138.5t86 204.5t30 252.5t-30 254t-86 206t-137 138.5t-183 51.5t-182.5 -51.5t-135.5 -139.5t-83.5 -205.5t-28.5 -251.5zM418 1688l241 325h19l241 -325h-108l-143 209l-144 -209h-106z" />
<glyph unicode="&#xd5;" horiz-adv-x="1335" d="M88 0zM88 784q0 154 38 299.5t111.5 257t182.5 179t248 67.5t247.5 -67.5t182 -180t111.5 -258t38 -299.5t-38 -298t-111.5 -256.5t-182 -180t-247.5 -67.5q-141 0 -250 68.5t-182.5 181t-110.5 258t-37 296.5zM236 784q0 -133 28.5 -251.5t83.5 -206.5t136 -139.5 t184 -51.5q100 0 181 51.5t137 138.5t86 204.5t30 252.5t-30 254t-86 206t-137 138.5t-183 51.5t-182.5 -51.5t-135.5 -139.5t-83.5 -205.5t-28.5 -251.5zM377 1831q29 66 69.5 105.5t96.5 39.5q35 0 64.5 -17t70.5 -50q35 -29 61.5 -44.5t55.5 -15.5q35 0 60.5 26t49.5 75 l53 -51q-31 -66 -71.5 -106t-95.5 -40q-35 0 -65 17.5t-71 50.5q-33 27 -58.5 43t-55.5 16q-33 0 -56.5 -21.5t-52.5 -78.5z" />
<glyph unicode="&#xd6;" horiz-adv-x="1335" d="M88 0zM88 784q0 154 38 299.5t111.5 257t182.5 179t248 67.5t247.5 -67.5t182 -180t111.5 -258t38 -299.5t-38 -298t-111.5 -256.5t-182 -180t-247.5 -67.5q-141 0 -250 68.5t-182.5 181t-110.5 258t-37 296.5zM236 784q0 -133 28.5 -251.5t83.5 -206.5t136 -139.5 t184 -51.5q100 0 181 51.5t137 138.5t86 204.5t30 252.5t-30 254t-86 206t-137 138.5t-183 51.5t-182.5 -51.5t-135.5 -139.5t-83.5 -205.5t-28.5 -251.5zM439 1743v240h108v-240h-108zM789 1743v240h108v-240h-108z" />
<glyph unicode="&#xd7;" d="M268 465l256 338l-256 338l60 71l252 -338l254 336l59 -71l-252 -338l252 -334l-57 -72l-254 336l-254 -340z" />
<glyph unicode="&#xd8;" horiz-adv-x="1335" d="M88 782q0 156 38 300.5t111.5 257t182.5 180t248 67.5q96 0 176 -31.5t145 -91.5l160 295l72 -49l-168 -311q96 -117 145 -279t49 -338q0 -154 -38 -298t-111.5 -256.5t-182 -180t-247.5 -67.5q-96 0 -175 31.5t-145 86.5l-164 -301l-71 49l172 318q-98 117 -147.5 279.5 t-49.5 338.5zM236 784q0 -141 32.5 -264t93.5 -213l553 1020q-51 49 -113 77t-136 28q-102 0 -182.5 -51.5t-135.5 -139.5t-83.5 -205.5t-28.5 -251.5zM422 236q49 -47 110.5 -74t135.5 -27q100 0 181 51.5t137 138.5t86 204.5t30 252.5q0 141 -33 264t-94 211z" />
<glyph unicode="&#xd9;" horiz-adv-x="1157" d="M117 0zM117 606v961h145v-959q0 -111 16.5 -198.5t54.5 -148t98.5 -93.5t148.5 -33q166 0 242.5 117t76.5 356v959h143v-959q0 -322 -120.5 -475t-343.5 -153q-238 0 -349.5 160.5t-111.5 465.5zM357 2013h125l223 -325h-104z" />
<glyph unicode="&#xda;" horiz-adv-x="1157" d="M117 0zM117 606v961h145v-959q0 -111 16.5 -198.5t54.5 -148t98.5 -93.5t148.5 -33q166 0 242.5 117t76.5 356v959h143v-959q0 -322 -120.5 -475t-343.5 -153q-238 0 -349.5 160.5t-111.5 465.5zM453 1688l221 325h127l-246 -325h-102z" />
<glyph unicode="&#xdb;" horiz-adv-x="1157" d="M117 0zM117 606v961h145v-959q0 -111 16.5 -198.5t54.5 -148t98.5 -93.5t148.5 -33q166 0 242.5 117t76.5 356v959h143v-959q0 -322 -120.5 -475t-343.5 -153q-238 0 -349.5 160.5t-111.5 465.5zM326 1688l241 325h19l241 -325h-108l-143 209l-144 -209h-106z" />
<glyph unicode="&#xdc;" horiz-adv-x="1157" d="M117 0zM117 606v961h145v-959q0 -111 16.5 -198.5t54.5 -148t98.5 -93.5t148.5 -33q166 0 242.5 117t76.5 356v959h143v-959q0 -322 -120.5 -475t-343.5 -153q-238 0 -349.5 160.5t-111.5 465.5zM349 1743v240h108v-240h-108zM699 1743v240h108v-240h-108z" />
<glyph unicode="&#xdd;" horiz-adv-x="1148" d="M0 0zM0 1567h166l410 -690l413 690h158l-498 -824v-743h-145v737zM449 1688l221 325h127l-246 -325h-102z" />
<glyph unicode="&#xde;" horiz-adv-x="1050" d="M129 0v1567h147v-316h342q92 0 160 -40t113 -105.5t66.5 -150.5t21.5 -173q0 -86 -20.5 -170t-64.5 -149.5t-112.5 -105.5t-163.5 -40h-342v-317h-147zM276 465h336q59 0 101.5 26.5t70 70.5t41 101.5t13.5 116.5q0 61 -13.5 118.5t-41 101.5t-70.5 71t-101 27h-336v-633 z" />
<glyph unicode="&#xdf;" horiz-adv-x="1024" d="M129 0v1251q0 186 82 261t221 75q168 0 234.5 -91t66.5 -263q0 -109 -26.5 -221.5t-94.5 -223.5q66 8 122.5 -14t98 -71.5t65.5 -123t24 -169.5q0 -86 -20.5 -164t-62.5 -137.5t-107.5 -94t-156.5 -34.5q-72 0 -135 22.5t-102 65.5l29 108q31 -37 83 -57.5t107 -20.5 q63 0 107.5 26t72 69t41 99t13.5 116q0 90 -27 151.5t-71 94t-103.5 37.5t-124.5 -13v29q72 129 103.5 242.5t31.5 246.5q0 143 -37 207.5t-129 64.5q-80 0 -126 -52t-46 -181v-1235h-133z" />
<glyph unicode="&#xe0;" horiz-adv-x="835" d="M61 0zM61 238q0 106 50.5 167.5t160.5 83.5l330 62q0 119 -44 171t-169 52q-55 0 -118.5 -14.5t-145.5 -61.5l-23 105q90 53 167 68.5t137 15.5q178 0 253.5 -79t75.5 -239v-569h-127v96q-72 -51 -144.5 -83.5t-158.5 -32.5q-119 0 -181.5 67.5t-62.5 190.5zM182 250 q0 -82 40 -126t118 -44q66 0 132.5 28.5t129.5 69.5v295l-291 -63q-80 -16 -104.5 -61.5t-24.5 -98.5zM201 1312h125l223 -325h-104z" />
<glyph unicode="&#xe1;" horiz-adv-x="835" d="M61 0zM61 238q0 106 50.5 167.5t160.5 83.5l330 62q0 119 -44 171t-169 52q-55 0 -118.5 -14.5t-145.5 -61.5l-23 105q90 53 167 68.5t137 15.5q178 0 253.5 -79t75.5 -239v-569h-127v96q-72 -51 -144.5 -83.5t-158.5 -32.5q-119 0 -181.5 67.5t-62.5 190.5zM182 250 q0 -82 40 -126t118 -44q66 0 132.5 28.5t129.5 69.5v295l-291 -63q-80 -16 -104.5 -61.5t-24.5 -98.5zM289 987l221 325h127l-246 -325h-102z" />
<glyph unicode="&#xe2;" horiz-adv-x="835" d="M61 0zM61 238q0 106 50.5 167.5t160.5 83.5l330 62q0 119 -44 171t-169 52q-55 0 -118.5 -14.5t-145.5 -61.5l-23 105q90 53 167 68.5t137 15.5q178 0 253.5 -79t75.5 -239v-569h-127v96q-72 -51 -144.5 -83.5t-158.5 -32.5q-119 0 -181.5 67.5t-62.5 190.5zM172 987 l241 325h19l241 -325h-108l-143 209l-144 -209h-106zM182 250q0 -82 40 -126t118 -44q66 0 132.5 28.5t129.5 69.5v295l-291 -63q-80 -16 -104.5 -61.5t-24.5 -98.5z" />
<glyph unicode="&#xe3;" horiz-adv-x="835" d="M61 0zM61 238q0 106 50.5 167.5t160.5 83.5l330 62q0 119 -44 171t-169 52q-55 0 -118.5 -14.5t-145.5 -61.5l-23 105q90 53 167 68.5t137 15.5q178 0 253.5 -79t75.5 -239v-569h-127v96q-72 -51 -144.5 -83.5t-158.5 -32.5q-119 0 -181.5 67.5t-62.5 190.5zM131 1130 q29 66 69.5 105.5t96.5 39.5q35 0 64.5 -17t70.5 -50q35 -29 61.5 -44.5t55.5 -15.5q35 0 60.5 26t49.5 75l53 -51q-31 -66 -71.5 -106t-95.5 -40q-35 0 -65 17.5t-71 50.5q-33 27 -58.5 43t-55.5 16q-33 0 -56.5 -21.5t-52.5 -78.5zM182 250q0 -82 40 -126t118 -44 q66 0 132.5 28.5t129.5 69.5v295l-291 -63q-80 -16 -104.5 -61.5t-24.5 -98.5z" />
<glyph unicode="&#xe4;" horiz-adv-x="835" d="M61 0zM61 238q0 106 50.5 167.5t160.5 83.5l330 62q0 119 -44 171t-169 52q-55 0 -118.5 -14.5t-145.5 -61.5l-23 105q90 53 167 68.5t137 15.5q178 0 253.5 -79t75.5 -239v-569h-127v96q-72 -51 -144.5 -83.5t-158.5 -32.5q-119 0 -181.5 67.5t-62.5 190.5zM182 250 q0 -82 40 -126t118 -44q66 0 132.5 28.5t129.5 69.5v295l-291 -63q-80 -16 -104.5 -61.5t-24.5 -98.5zM195 1042v240h108v-240h-108zM545 1042v240h108v-240h-108z" />
<glyph unicode="&#xe5;" horiz-adv-x="835" d="M61 0zM61 238q0 106 50.5 167.5t160.5 83.5l330 62q0 119 -44 171t-169 52q-55 0 -118.5 -14.5t-145.5 -61.5l-23 105q90 53 167 68.5t137 15.5q178 0 253.5 -79t75.5 -239v-569h-127v96q-72 -51 -144.5 -83.5t-158.5 -32.5q-119 0 -181.5 67.5t-62.5 190.5zM182 250 q0 -82 40 -126t118 -44q66 0 132.5 28.5t129.5 69.5v295l-291 -63q-80 -16 -104.5 -61.5t-24.5 -98.5zM244 1194q0 39 11 75t35 63.5t56.5 45t75.5 17.5t78 -17.5t57.5 -45t34.5 -63.5t12 -75t-12 -75t-34.5 -64.5t-56.5 -46t-77 -17.5t-76.5 17.5t-56.5 45t-35 64.5t-12 76 zM307 1192q-2 -53 27 -98t88 -45t89 43t30 102t-31 101t-86 42t-86 -43t-31 -102z" />
<glyph unicode="&#xe6;" horiz-adv-x="1411" d="M61 238q0 98 47.5 163.5t163.5 87.5l330 62q0 121 -44 172t-169 51q-53 0 -116.5 -13t-147.5 -61l-23 103q90 53 166 68.5t138 15.5q121 0 192.5 -37t106.5 -109q45 66 113.5 106t162.5 40q92 0 157.5 -39t107.5 -100.5t61.5 -140.5t19.5 -158v-27.5t-2 -26.5h-582 q4 -63 20.5 -118.5t49.5 -97.5t83 -65.5t122 -23.5q109 0 221 66l27 -99q-41 -33 -113 -55t-154 -22q-117 0 -192.5 46t-122.5 121q-76 -63 -170 -115t-207 -52q-121 0 -183.5 67.5t-62.5 190.5zM182 250q0 -82 41 -126t119 -44q76 0 154.5 39t154.5 94q-20 49 -28.5 103.5 t-8.5 109.5v24.5t2 24.5l-303 -63q-82 -16 -106.5 -63.5t-24.5 -98.5zM743 475h455q0 57 -13.5 112.5t-40 97.5t-67.5 67.5t-98 25.5q-109 0 -167 -87t-69 -216z" />
<glyph unicode="&#xe7;" horiz-adv-x="796" d="M88 0zM88 436q0 102 28.5 186.5t79 142.5t117 90t140.5 32q72 0 141.5 -29t126.5 -86l-59 -88q-49 51 -99.5 69.5t-95.5 18.5q-111 0 -181.5 -91t-70.5 -247q0 -68 14.5 -129t45 -108t75.5 -75t107 -28q76 0 126 41t85 107l69 -62q-41 -86 -113.5 -143t-183.5 -57 q-88 0 -153.5 38.5t-109.5 102t-66.5 145.5t-22.5 170zM289 -414l81 351h109l-102 -351h-88z" />
<glyph unicode="&#xe8;" horiz-adv-x="884" d="M88 0zM88 426q0 88 22.5 171t68.5 147.5t114.5 103.5t161.5 39q92 0 157.5 -39t107.5 -100.5t61.5 -140.5t19.5 -158v-27.5t-2 -26.5h-582q4 -63 20.5 -118.5t49 -97.5t83 -65.5t122.5 -23.5q109 0 221 66l26 -99q-41 -33 -112.5 -55t-153.5 -22q-104 0 -177 37.5 t-119 101t-67.5 143.5t-21.5 164zM217 475h455q0 57 -13.5 112.5t-40 97.5t-67.5 67.5t-98 25.5q-109 0 -167.5 -87t-68.5 -216zM230 1312h125l223 -325h-104z" />
<glyph unicode="&#xe9;" horiz-adv-x="884" d="M88 0zM88 426q0 88 22.5 171t68.5 147.5t114.5 103.5t161.5 39q92 0 157.5 -39t107.5 -100.5t61.5 -140.5t19.5 -158v-27.5t-2 -26.5h-582q4 -63 20.5 -118.5t49 -97.5t83 -65.5t122.5 -23.5q109 0 221 66l26 -99q-41 -33 -112.5 -55t-153.5 -22q-104 0 -177 37.5 t-119 101t-67.5 143.5t-21.5 164zM217 475h455q0 57 -13.5 112.5t-40 97.5t-67.5 67.5t-98 25.5q-109 0 -167.5 -87t-68.5 -216zM332 987l221 325h127l-246 -325h-102z" />
<glyph unicode="&#xea;" horiz-adv-x="884" d="M88 0zM88 426q0 88 22.5 171t68.5 147.5t114.5 103.5t161.5 39q92 0 157.5 -39t107.5 -100.5t61.5 -140.5t19.5 -158v-27.5t-2 -26.5h-582q4 -63 20.5 -118.5t49 -97.5t83 -65.5t122.5 -23.5q109 0 221 66l26 -99q-41 -33 -112.5 -55t-153.5 -22q-104 0 -177 37.5 t-119 101t-67.5 143.5t-21.5 164zM211 987l241 325h19l241 -325h-108l-143 209l-144 -209h-106zM217 475h455q0 57 -13.5 112.5t-40 97.5t-67.5 67.5t-98 25.5q-109 0 -167.5 -87t-68.5 -216z" />
<glyph unicode="&#xeb;" horiz-adv-x="884" d="M88 0zM88 426q0 88 22.5 171t68.5 147.5t114.5 103.5t161.5 39q92 0 157.5 -39t107.5 -100.5t61.5 -140.5t19.5 -158v-27.5t-2 -26.5h-582q4 -63 20.5 -118.5t49 -97.5t83 -65.5t122.5 -23.5q109 0 221 66l26 -99q-41 -33 -112.5 -55t-153.5 -22q-104 0 -177 37.5 t-119 101t-67.5 143.5t-21.5 164zM217 475h455q0 57 -13.5 112.5t-40 97.5t-67.5 67.5t-98 25.5q-109 0 -167.5 -87t-68.5 -216zM230 1042v240h108v-240h-108zM580 1042v240h108v-240h-108z" />
<glyph unicode="&#xec;" horiz-adv-x="448" d="M12 0zM12 1312h125l223 -325h-104zM184 0v864h133v-864h-133z" />
<glyph unicode="&#xed;" horiz-adv-x="446" d="M90 0zM90 987l221 325h127l-246 -325h-102zM129 0v864h133v-864h-133z" />
<glyph unicode="&#xee;" horiz-adv-x="501" d="M0 0zM0 987l241 325h19l241 -325h-108l-143 209l-144 -209h-106zM182 0v864h133v-864h-133z" />
<glyph unicode="&#xef;" horiz-adv-x="458" d="M0 0zM0 1042v240h108v-240h-108zM162 0v864h133v-864h-133zM350 1042v240h108v-240h-108z" />
<glyph unicode="&#xf0;" horiz-adv-x="897" d="M88 440q0 82 19.5 162t58.5 143.5t99.5 102.5t140.5 39q70 0 133 -28t114 -71q-25 135 -69.5 250t-104.5 211l-194 -196l-45 73l192 195q-59 82 -124.5 143.5t-131.5 102.5h150q41 -25 89 -67t95 -99l184 186l45 -74l-178 -180q49 -70 93 -154.5t78 -186t53.5 -216 t19.5 -241.5q0 -276 -92 -415.5t-264 -139.5q-88 0 -156 38.5t-113 102t-68.5 146.5t-23.5 173zM221 451q0 -72 14.5 -135.5t44 -110.5t71.5 -74t98 -27q106 0 166.5 106t60.5 325q0 37 -2 72.5t-6 70.5q-55 51 -115.5 79.5t-116.5 28.5q-53 0 -94 -26.5t-67.5 -72.5 t-40 -106.5t-13.5 -129.5z" />
<glyph unicode="&#xf1;" horiz-adv-x="925" d="M121 0v864h129v-98q51 43 141 82t195 39q61 0 106 -17.5t75 -58.5t44 -108.5t14 -167.5v-535h-133v522q0 139 -38 192.5t-115 53.5q-41 0 -83 -11.5t-81 -27.5t-71 -35.5t-50 -38.5v-655h-133zM121 0zM180 1130q29 66 69.5 105.5t96.5 39.5q35 0 64.5 -17t70.5 -50 q35 -29 61.5 -44.5t55.5 -15.5q35 0 60.5 26t49.5 75l53 -51q-31 -66 -71.5 -106t-95.5 -40q-35 0 -65 17.5t-71 50.5q-33 27 -58.5 43t-55.5 16q-33 0 -56.5 -21.5t-52.5 -78.5z" />
<glyph unicode="&#xf2;" horiz-adv-x="884" d="M88 0zM88 434q0 86 23.5 168t68.5 145.5t110.5 101.5t151.5 38t153 -39t112 -102.5t68.5 -145.5t23.5 -168t-23.5 -168t-68.5 -145.5t-112 -101t-153 -37.5t-151.5 37.5t-110.5 101t-68.5 145.5t-23.5 170zM219 432q0 -70 14.5 -131t43 -107.5t70.5 -73t95 -26.5 t95.5 26.5t71 73t44 107.5t15.5 131t-15.5 132.5t-44 108.5t-71 72.5t-95.5 26.5t-94 -26.5t-69.5 -72.5t-44 -108.5t-15.5 -132.5zM221 1312h125l223 -325h-104z" />
<glyph unicode="&#xf3;" horiz-adv-x="884" d="M88 0zM88 434q0 86 23.5 168t68.5 145.5t110.5 101.5t151.5 38t153 -39t112 -102.5t68.5 -145.5t23.5 -168t-23.5 -168t-68.5 -145.5t-112 -101t-153 -37.5t-151.5 37.5t-110.5 101t-68.5 145.5t-23.5 170zM219 432q0 -70 14.5 -131t43 -107.5t70.5 -73t95 -26.5 t95.5 26.5t71 73t44 107.5t15.5 131t-15.5 132.5t-44 108.5t-71 72.5t-95.5 26.5t-94 -26.5t-69.5 -72.5t-44 -108.5t-15.5 -132.5zM318 987l221 325h127l-246 -325h-102z" />
<glyph unicode="&#xf4;" horiz-adv-x="884" d="M88 0zM88 434q0 86 23.5 168t68.5 145.5t110.5 101.5t151.5 38t153 -39t112 -102.5t68.5 -145.5t23.5 -168t-23.5 -168t-68.5 -145.5t-112 -101t-153 -37.5t-151.5 37.5t-110.5 101t-68.5 145.5t-23.5 170zM193 987l241 325h19l241 -325h-108l-143 209l-144 -209h-106z M219 432q0 -70 14.5 -131t43 -107.5t70.5 -73t95 -26.5t95.5 26.5t71 73t44 107.5t15.5 131t-15.5 132.5t-44 108.5t-71 72.5t-95.5 26.5t-94 -26.5t-69.5 -72.5t-44 -108.5t-15.5 -132.5z" />
<glyph unicode="&#xf5;" horiz-adv-x="884" d="M88 0zM88 434q0 86 23.5 168t68.5 145.5t110.5 101.5t151.5 38t153 -39t112 -102.5t68.5 -145.5t23.5 -168t-23.5 -168t-68.5 -145.5t-112 -101t-153 -37.5t-151.5 37.5t-110.5 101t-68.5 145.5t-23.5 170zM154 1130q29 66 69.5 105.5t96.5 39.5q35 0 64.5 -17t70.5 -50 q35 -29 61.5 -44.5t55.5 -15.5q35 0 60.5 26t49.5 75l53 -51q-31 -66 -71.5 -106t-95.5 -40q-35 0 -65 17.5t-71 50.5q-33 27 -58.5 43t-55.5 16q-33 0 -56.5 -21.5t-52.5 -78.5zM219 432q0 -70 14.5 -131t43 -107.5t70.5 -73t95 -26.5t95.5 26.5t71 73t44 107.5t15.5 131 t-15.5 132.5t-44 108.5t-71 72.5t-95.5 26.5t-94 -26.5t-69.5 -72.5t-44 -108.5t-15.5 -132.5z" />
<glyph unicode="&#xf6;" horiz-adv-x="884" d="M88 0zM88 434q0 86 23.5 168t68.5 145.5t110.5 101.5t151.5 38t153 -39t112 -102.5t68.5 -145.5t23.5 -168t-23.5 -168t-68.5 -145.5t-112 -101t-153 -37.5t-151.5 37.5t-110.5 101t-68.5 145.5t-23.5 170zM215 1042v240h108v-240h-108zM219 432q0 -70 14.5 -131 t43 -107.5t70.5 -73t95 -26.5t95.5 26.5t71 73t44 107.5t15.5 131t-15.5 132.5t-44 108.5t-71 72.5t-95.5 26.5t-94 -26.5t-69.5 -72.5t-44 -108.5t-15.5 -132.5zM565 1042v240h108v-240h-108z" />
<glyph unicode="&#xf7;" d="M215 752v104h731v-104h-731zM510 254v250h145v-250h-145zM510 1106v250h145v-250h-145z" />
<glyph unicode="&#xf8;" horiz-adv-x="884" d="M88 434q0 86 23.5 168t68.5 145.5t110.5 101.5t151.5 38q84 0 152 -39l92 194l72 -45l-94 -200q66 -66 100.5 -163t34.5 -202q0 -86 -23.5 -168t-68.5 -145.5t-112 -101t-153 -37.5q-82 0 -145 34l-98 -209l-70 45l98 213q-68 66 -103.5 163t-35.5 208zM219 432 q0 -156 64 -250l262 557q-50 33 -103 33t-94 -26.5t-69.5 -72.5t-44 -108.5t-15.5 -132.5zM346 121q41 -27 96 -27q53 0 95.5 26.5t71 73t44 107.5t15.5 131q0 72 -15.5 133.5t-46.5 108.5z" />
<glyph unicode="&#xf9;" horiz-adv-x="954" d="M129 0zM129 330v534h133v-518q0 -141 39 -194.5t117 -53.5q41 0 84 11.5t81 28t69.5 36t49.5 35.5v655h134v-864h-129v98q-25 -20 -61 -41.5t-80 -38t-93 -27.5t-98 -11q-125 0 -185.5 79.5t-60.5 270.5zM254 1312h125l223 -325h-104z" />
<glyph unicode="&#xfa;" horiz-adv-x="954" d="M129 0zM129 330v534h133v-518q0 -141 39 -194.5t117 -53.5q41 0 84 11.5t81 28t69.5 36t49.5 35.5v655h134v-864h-129v98q-25 -20 -61 -41.5t-80 -38t-93 -27.5t-98 -11q-125 0 -185.5 79.5t-60.5 270.5zM352 987l221 325h127l-246 -325h-102z" />
<glyph unicode="&#xfb;" horiz-adv-x="954" d="M129 0zM129 330v534h133v-518q0 -141 39 -194.5t117 -53.5q41 0 84 11.5t81 28t69.5 36t49.5 35.5v655h134v-864h-129v98q-25 -20 -61 -41.5t-80 -38t-93 -27.5t-98 -11q-125 0 -185.5 79.5t-60.5 270.5zM228 987l241 325h19l241 -325h-108l-143 209l-144 -209h-106z" />
<glyph unicode="&#xfc;" horiz-adv-x="954" d="M129 0zM129 330v534h133v-518q0 -141 39 -194.5t117 -53.5q41 0 84 11.5t81 28t69.5 36t49.5 35.5v655h134v-864h-129v98q-25 -20 -61 -41.5t-80 -38t-93 -27.5t-98 -11q-125 0 -185.5 79.5t-60.5 270.5zM250 1042v240h108v-240h-108zM600 1042v240h108v-240h-108z" />
<glyph unicode="&#xfd;" horiz-adv-x="815" d="M23 0zM23 864h133l247 -618l263 618h129l-539 -1278h-129l215 510zM281 987l221 325h127l-246 -325h-102z" />
<glyph unicode="&#xfe;" horiz-adv-x="954" d="M129 -414v1981h133v-799q23 18 55.5 38.5t71.5 38t82 30t88 12.5q76 0 133.5 -37t95 -100.5t57 -145.5t19.5 -174q0 -88 -18.5 -170t-55 -144.5t-92 -99t-131.5 -36.5q-43 0 -87 11t-85 29.5t-74.5 40t-58.5 39.5v-514h-133zM262 209q20 -16 50 -34.5t66 -36t73.5 -29 t74.5 -11.5q98 0 151.5 90.5t53.5 241.5q0 152 -53 245t-156 93q-37 0 -73.5 -11.5t-71.5 -28.5t-64.5 -36.5t-50.5 -34.5v-448z" />
<glyph unicode="&#xff;" horiz-adv-x="815" d="M23 0zM23 864h133l247 -618l263 618h129l-539 -1278h-129l215 510zM176 1024v240h108v-240h-108zM526 1024v240h108v-240h-108z" />
<glyph unicode="&#x152;" horiz-adv-x="1837" d="M88 791q0 143 31 283t101.5 249t184 176.5t279.5 67.5h1047v-156h-644v-532h637v-150h-637v-573h648v-156h-1051q-166 0 -280.5 69.5t-184 182.5t-100.5 254t-31 285zM233 784q0 -133 26 -247.5t80 -198.5t139 -133t206 -49l258 -2v1257h-258q-121 0 -207 -49t-140 -134 t-79 -200t-25 -244z" />
<glyph unicode="&#x153;" horiz-adv-x="1472" d="M88 434q0 86 23.5 168t68.5 145.5t110.5 101.5t151.5 38q102 0 176 -53.5t119 -137.5q45 86 120 138.5t185 52.5q92 0 158 -39t108 -100.5t61.5 -140.5t19.5 -158v-27.5t-3 -26.5h-581q4 -63 20.5 -118.5t49 -97.5t83 -65.5t121.5 -23.5q109 0 221 66l27 -99 q-41 -33 -112.5 -55t-153.5 -22q-123 0 -203 51t-123 135q-45 -84 -117.5 -135t-175.5 -51q-86 0 -151.5 37.5t-110.5 101t-68.5 145.5t-23.5 170zM219 432q0 -70 14.5 -131t43 -107.5t70.5 -73t95 -26.5t95.5 26.5t71 73t44 107.5t15.5 131t-15.5 132.5t-44 108.5t-71 72.5 t-95.5 26.5t-94 -26.5t-69.5 -72.5t-44 -108.5t-15.5 -132.5zM805 475h455q0 57 -13.5 112.5t-40 97.5t-68 67.5t-98.5 25.5q-109 0 -167 -87t-68 -216z" />
<glyph unicode="&#x178;" d="M8 0zM8 1567h166l410 -690l413 690h158l-498 -824v-743h-145v737zM355 1743v240h108v-240h-108zM705 1743v240h108v-240h-108z" />
<glyph unicode="&#x2c6;" horiz-adv-x="731" d="M115 969l241 325h19l241 -325h-108l-143 209l-144 -209h-106z" />
<glyph unicode="&#x2dc;" horiz-adv-x="821" d="M121 1112q29 66 69.5 105.5t96.5 39.5q35 0 64.5 -17t70.5 -50q35 -29 61.5 -44.5t55.5 -15.5q35 0 60.5 26t49.5 75l53 -51q-31 -66 -71.5 -106t-95.5 -40q-35 0 -65 17.5t-71 50.5q-33 27 -58.5 43t-55.5 16q-33 0 -56.5 -21.5t-52.5 -78.5z" />
<glyph unicode="&#x2000;" horiz-adv-x="1016" />
<glyph unicode="&#x2001;" horiz-adv-x="2032" />
<glyph unicode="&#x2002;" horiz-adv-x="1016" />
<glyph unicode="&#x2003;" horiz-adv-x="2032" />
<glyph unicode="&#x2004;" horiz-adv-x="677" />
<glyph unicode="&#x2005;" horiz-adv-x="508" />
<glyph unicode="&#x2006;" horiz-adv-x="338" />
<glyph unicode="&#x2007;" horiz-adv-x="338" />
<glyph unicode="&#x2008;" horiz-adv-x="254" />
<glyph unicode="&#x2009;" horiz-adv-x="406" />
<glyph unicode="&#x200a;" horiz-adv-x="112" />
<glyph unicode="&#x2010;" horiz-adv-x="518" d="M37 500v110h442v-110h-442z" />
<glyph unicode="&#x2011;" horiz-adv-x="518" d="M37 500v110h442v-110h-442z" />
<glyph unicode="&#x2012;" horiz-adv-x="518" d="M37 500v110h442v-110h-442z" />
<glyph unicode="&#x2013;" horiz-adv-x="808" d="M37 500v110h733v-110h-733z" />
<glyph unicode="&#x2014;" horiz-adv-x="1226" d="M37 500v110h1151v-110h-1151z" />
<glyph unicode="&#x2018;" horiz-adv-x="303" d="M78 1053zM78 1561l73 -508h60l-23 299h35v250h-145v-41z" />
<glyph unicode="&#x2019;" horiz-adv-x="303" d="M78 1053zM78 1352v250h145v-41l-73 -508h-60l23 299h-35z" />
<glyph unicode="&#x201a;" horiz-adv-x="303" d="M78 0v250h145v-41l-73 -508h-60l23 299h-35zM78 0z" />
<glyph unicode="&#x201c;" horiz-adv-x="514" d="M78 1053zM78 1561l73 -508h60l-23 299h35v250h-145v-41zM289 1561l73 -508h60l-23 299h35v250h-145v-41z" />
<glyph unicode="&#x201d;" horiz-adv-x="514" d="M78 1053zM78 1352v250h145v-41l-73 -508h-60l23 299h-35zM289 1352v250h145v-41l-73 -508h-60l23 299h-35z" />
<glyph unicode="&#x201e;" horiz-adv-x="514" d="M78 0v250h145v-41l-73 -508h-60l23 299h-35zM78 0zM289 0v250h145v-41l-73 -508h-60l23 299h-35z" />
<glyph unicode="&#x2022;" horiz-adv-x="569" d="M121 805q0 37 11 72.5t31.5 62.5t51.5 43t70 16t69.5 -16t51 -44t30.5 -62.5t10 -73.5q0 -37 -10 -73t-30.5 -63.5t-51 -44t-69.5 -16.5t-70 16.5t-51.5 44t-31.5 63.5t-11 75z" />
<glyph unicode="&#x2026;" horiz-adv-x="1263" d="M129 0v250h145v-250h-145zM129 0zM557 0v250h145v-250h-145zM989 0v250h145v-250h-145z" />
<glyph unicode="&#x202f;" horiz-adv-x="406" />
<glyph unicode="&#x2039;" horiz-adv-x="526" d="M78 414v22l276 410h92l-262 -422l262 -424h-92z" />
<glyph unicode="&#x203a;" horiz-adv-x="526" d="M78 0l264 424l-264 422h94l274 -410v-22l-274 -414h-94z" />
<glyph unicode="&#x205f;" horiz-adv-x="508" />
<glyph unicode="&#x20ac;" d="M92 596l23 86h145q-2 27 -2 52.5v51.5q0 72 6 150h-172l23 86h159q14 111 48 213t87.5 181t128 125t173.5 46q68 0 139.5 -25.5t122.5 -91.5l-37 -112q-53 55 -104.5 71.5t-92.5 16.5q-74 0 -129 -33t-95 -89t-65.5 -134t-39.5 -168h462l-20 -86h-453q-4 -35 -4 -71v-72 v-56.5t2 -54.5h410l-21 -86h-380q12 -102 37.5 -188t63.5 -147.5t89 -95.5t115 -34q84 0 149.5 61.5t102.5 190.5l65 -70q-47 -152 -131 -242.5t-211 -90.5q-88 0 -158.5 49t-124 132t-87 195.5t-48.5 239.5h-176z" />
<glyph unicode="&#x2122;" horiz-adv-x="1443" d="M72 1479v88h481v-88h-193v-801h-98v801h-190zM643 678v909h16l314 -719l325 719h17v-909h-90v504l-244 -525h-16l-232 521v-500h-90z" />
<glyph unicode="&#x25fc;" horiz-adv-x="860" d="M0 0v860h860v-860h-860z" />
</font>
</defs>
</svg>
